<svg id="visual" viewBox="0 0 900 600" width="900" height="600" xmlns="http://www.w3.org/2000/svg" xmlns:xlink="http://www.w3.org/1999/xlink" version="1.1"><g stroke-width="1" stroke-linejoin="bevel"><path d="M489.3 347L400.7 381L500.3 480Z" fill="#1e1e1e" stroke="#1e1e1e"></path><path d="M400.7 381L409.7 486L500.3 480Z" fill="#282828" stroke="#282828"></path><path d="M638.9 372L518.3 251L489.3 347Z" fill="#2f2f2f" stroke="#2f2f2f"></path><path d="M489.3 347L368.7 264L400.7 381Z" fill="#343434" stroke="#343434"></path><path d="M500.3 480L638.9 372L489.3 347Z" fill="#282828" stroke="#282828"></path><path d="M518.3 251L368.7 264L489.3 347Z" fill="#1e1e1e" stroke="#1e1e1e"></path><path d="M279.1 600L369.7 600L409.7 486Z" fill="#2a2a2a" stroke="#2a2a2a"></path><path d="M409.7 486L508.3 600L500.3 480Z" fill="#282828" stroke="#282828"></path><path d="M500.3 480L657.9 505L638.9 372Z" fill="#252525" stroke="#252525"></path><path d="M254.1 452L409.7 486L400.7 381Z" fill="#363636" stroke="#363636"></path><path d="M409.7 486L369.7 600L508.3 600Z" fill="#252525" stroke="#252525"></path><path d="M508.3 600L657.9 505L500.3 480Z" fill="#232323" stroke="#232323"></path><path d="M250.1 375L254.1 452L400.7 381Z" fill="#1e1e1e" stroke="#1e1e1e"></path><path d="M368.7 264L250.1 375L400.7 381Z" fill="#2f2f2f" stroke="#2f2f2f"></path><path d="M638.9 372L661.9 248L518.3 251Z" fill="#1e1e1e" stroke="#1e1e1e"></path><path d="M781.4 333L661.9 248L638.9 372Z" fill="#2a2a2a" stroke="#2a2a2a"></path><path d="M254.1 452L279.1 600L409.7 486Z" fill="#2c2c2c" stroke="#2c2c2c"></path><path d="M508.3 600L652.9 600L657.9 505Z" fill="#1e1e1e" stroke="#1e1e1e"></path><path d="M368.7 264L229.1 255L250.1 375Z" fill="#282828" stroke="#282828"></path><path d="M250.1 375L139.6 473L254.1 452Z" fill="#2f2f2f" stroke="#2f2f2f"></path><path d="M367.7 132L229.1 255L368.7 264Z" fill="#232323" stroke="#232323"></path><path d="M493.3 121L368.7 264L518.3 251Z" fill="#343434" stroke="#343434"></path><path d="M754.4 600L751.4 458L657.9 505Z" fill="#313131" stroke="#313131"></path><path d="M657.9 505L751.4 458L638.9 372Z" fill="#282828" stroke="#282828"></path><path d="M615.9 113L493.3 121L518.3 251Z" fill="#232323" stroke="#232323"></path><path d="M493.3 121L367.7 132L368.7 264Z" fill="#2f2f2f" stroke="#2f2f2f"></path><path d="M229.1 255L150.6 336L250.1 375Z" fill="#343434" stroke="#343434"></path><path d="M254.1 452L139.6 473L279.1 600Z" fill="#1e1e1e" stroke="#1e1e1e"></path><path d="M751.4 458L781.4 333L638.9 372Z" fill="#2f2f2f" stroke="#2f2f2f"></path><path d="M661.9 248L615.9 113L518.3 251Z" fill="#252525" stroke="#252525"></path><path d="M150.6 336L139.6 473L250.1 375Z" fill="#1e1e1e" stroke="#1e1e1e"></path><path d="M770.4 133L615.9 113L661.9 248Z" fill="#1e1e1e" stroke="#1e1e1e"></path><path d="M652.9 600L754.4 600L657.9 505Z" fill="#282828" stroke="#282828"></path><path d="M751.4 458L900 454L781.4 333Z" fill="#313131" stroke="#313131"></path><path d="M363.7 0L367.7 132L493.3 121Z" fill="#232323" stroke="#232323"></path><path d="M363.7 0L262.1 113L367.7 132Z" fill="#232323" stroke="#232323"></path><path d="M367.7 132L262.1 113L229.1 255Z" fill="#2a2a2a" stroke="#2a2a2a"></path><path d="M229.1 255L112.6 218L150.6 336Z" fill="#232323" stroke="#232323"></path><path d="M781.4 333L769.4 214L661.9 248Z" fill="#2c2c2c" stroke="#2c2c2c"></path><path d="M139.6 473L129.6 600L279.1 600Z" fill="#2a2a2a" stroke="#2a2a2a"></path><path d="M123.6 118L112.6 218L229.1 255Z" fill="#202020" stroke="#202020"></path><path d="M150.6 336L0 337L139.6 473Z" fill="#232323" stroke="#232323"></path><path d="M139.6 473L0 504L129.6 600Z" fill="#363636" stroke="#363636"></path><path d="M900 144L770.4 133L769.4 214Z" fill="#363636" stroke="#363636"></path><path d="M769.4 214L770.4 133L661.9 248Z" fill="#2a2a2a" stroke="#2a2a2a"></path><path d="M615.9 113L531.3 0L493.3 121Z" fill="#363636" stroke="#363636"></path><path d="M621.9 0L531.3 0L615.9 113Z" fill="#202020" stroke="#202020"></path><path d="M531.3 0L363.7 0L493.3 121Z" fill="#282828" stroke="#282828"></path><path d="M262.1 113L123.6 118L229.1 255Z" fill="#1e1e1e" stroke="#1e1e1e"></path><path d="M900 600L900 454L751.4 458Z" fill="#313131" stroke="#313131"></path><path d="M781.4 333L900 219L769.4 214Z" fill="#2a2a2a" stroke="#2a2a2a"></path><path d="M900 454L900 355L781.4 333Z" fill="#2c2c2c" stroke="#2c2c2c"></path><path d="M770.4 133L621.9 0L615.9 113Z" fill="#2f2f2f" stroke="#2f2f2f"></path><path d="M240.1 0L123.6 118L262.1 113Z" fill="#232323" stroke="#232323"></path><path d="M0 223L0 337L112.6 218Z" fill="#313131" stroke="#313131"></path><path d="M112.6 218L0 337L150.6 336Z" fill="#282828" stroke="#282828"></path><path d="M754.4 600L900 600L751.4 458Z" fill="#232323" stroke="#232323"></path><path d="M363.7 0L240.1 0L262.1 113Z" fill="#313131" stroke="#313131"></path><path d="M0 337L0 504L139.6 473Z" fill="#2a2a2a" stroke="#2a2a2a"></path><path d="M900 355L900 219L781.4 333Z" fill="#232323" stroke="#232323"></path><path d="M770.4 133L783.4 0L621.9 0Z" fill="#313131" stroke="#313131"></path><path d="M0 504L0 600L129.6 600Z" fill="#282828" stroke="#282828"></path><path d="M0 106L0 223L112.6 218Z" fill="#2f2f2f" stroke="#2f2f2f"></path><path d="M0 106L112.6 218L123.6 118Z" fill="#363636" stroke="#363636"></path><path d="M900 219L900 144L769.4 214Z" fill="#343434" stroke="#343434"></path><path d="M900 144L783.4 0L770.4 133Z" fill="#252525" stroke="#252525"></path><path d="M240.1 0L117.6 0L123.6 118Z" fill="#2f2f2f" stroke="#2f2f2f"></path><path d="M117.6 0L0 106L123.6 118Z" fill="#202020" stroke="#202020"></path><path d="M900 144L900 0L783.4 0Z" fill="#2c2c2c" stroke="#2c2c2c"></path><path d="M117.6 0L0 0L0 106Z" fill="#202020" stroke="#202020"></path></g></svg>